<?xml version="1.0" encoding="utf-8"?>
<!-- Generator: Adobe Illustrator 23.0.1, SVG Export Plug-In . SVG Version: 6.00 Build 0)  -->
<svg version="1.1" xmlns="http://www.w3.org/2000/svg" xmlns:xlink="http://www.w3.org/1999/xlink" x="0px" y="0px"
	 viewBox="0 0 1400 7347.08" style="enable-background:new 0 0 1400 7347.08;" xml:space="preserve">
<style type="text/css">
	.st0{opacity:0.78;fill:#FFFFFF;}
	.st1{fill:#02328D;}
	.st2{opacity:0.3;}
	.st3{clip-path:url(#SVGID_4_);}
	.st4{opacity:0.2;fill:#02328D;}
	.st5{fill:#FFFFFF;}
	.st6{font-family:'HiraKakuStd-W3';}
	.st7{font-size:14px;}
	.st8{font-family:'HiraKakuStd-W6';}
	.st9{font-size:32px;}
	.st10{letter-spacing:-16;}
	.st11{font-size:43.9563px;}
	.st12{fill:#231815;}
	.st13{font-family:'HiraKakuProN-W6-83pv-RKSJ-H';}
	.st14{font-size:44px;}
	.st15{font-size:24px;}
	.st16{fill:none;}
	.st17{font-family:'KozGoPr6N-Regular-83pv-RKSJ-H';}
	.st18{font-size:16px;}
	.st19{font-size:18px;}
	.st20{letter-spacing:4;}
	.st21{fill:#595757;}
	.st22{font-family:'ShinGo-Medium';}
	.st23{font-family:'ShinGo-Bold';}
	.st24{fill:#DCDDDD;}
	.st25{font-size:20px;}
	.st26{letter-spacing:5;}
	.st27{letter-spacing:-2;}
	.st28{letter-spacing:2;}
	.st29{letter-spacing:-8;}
	.st30{fill:none;stroke:#02328D;stroke-width:0.75;stroke-miterlimit:10;}
	.st31{fill:none;stroke:#FFFFFF;stroke-width:0.75;stroke-miterlimit:10;}
</style>
<g id="背景">
	<g>
		<g>
			<defs>
				<rect id="SVGID_1_" x="-1" y="91.35" width="1400" height="555.37"/>
			</defs>
			<use xlink:href="#SVGID_1_"  style="overflow:visible;fill:#036EB8;"/>
			<clipPath id="SVGID_2_">
				<use xlink:href="#SVGID_1_"  style="overflow:visible;"/>
			</clipPath>
			<g transform="matrix(1 0 0 1 0 0)" style="opacity:0.8;clip-path:url(#SVGID_2_);">
				
					<image style="overflow:visible;" width="1920" height="1080" xlink:href="CDD43B41B1245170.jpg"  transform="matrix(0.7913 0 0 0.7913 -63.6563 -150.6694)">
				</image>
			</g>
		</g>
	</g>
	<rect x="411.65" y="249" class="st0" width="570" height="278.85"/>
</g>
<g id="画像">
</g>
<g id="文字">
	<rect x="-3.35" y="7182.52" class="st1" width="1403.35" height="164.56"/>
	<rect x="-1" y="0" class="st1" width="1400" height="91.35"/>
	<g class="st2">
		<defs>
			<rect id="SVGID_3_" x="-0.65" y="5284.67" class="st2" width="1401" height="1452.14"/>
		</defs>
		<clipPath id="SVGID_4_">
			<use xlink:href="#SVGID_3_"  style="overflow:visible;"/>
		</clipPath>
		<g id="YdJeUh_1_" class="st3">
			
				<image style="overflow:visible;" width="1280" height="728" id="YdJeUh" xlink:href="CDD43B41B1245171.jpg"  transform="matrix(2.4538 0 0 2.4538 -943.8885 4965.9434)">
			</image>
		</g>
	</g>
	<g>
		<defs>
			<rect id="SVGID_5_" y="2345" width="700.15" height="555.07"/>
		</defs>
		<clipPath id="SVGID_6_">
			<use xlink:href="#SVGID_5_"  style="overflow:visible;"/>
		</clipPath>
		<g style="clip-path:url(#SVGID_6_);">
			
				<image style="overflow:visible;" width="1920" height="1281" xlink:href="CDD43B41B1245177.jpg"  transform="matrix(0.4455 0 0 0.4455 -55.0003 2336.4924)">
			</image>
		</g>
	</g>
	<rect y="2900.07" class="st4" width="1400" height="894.42"/>
	<rect x="680.72" y="2345" class="st1" width="718.28" height="555.07"/>
	<rect y="1287.39" class="st1" width="1399" height="1057.6"/>
	<g>
		<text transform="matrix(1 0 0 1 657.1789 7292.4951)" class="st5 st6 st7">© 2018 Otani Inc.</text>
	</g>
	<text transform="matrix(1 0 0 1 227.8242 773.228)"><tspan x="0" y="0" class="st1 st8 st9">不安を安心に</tspan><tspan x="192" y="0" class="st1 st8 st9 st10">。</tspan></text>
	<text transform="matrix(1.001 0 0 1 378.8898 1712.3848)" class="st5 st6 st11">不動産</text>
	<text transform="matrix(1 0 0 1 524.1546 3123.5095)" class="st12 st13 st14">資産形成コンサル</text>
	<g>
		<text transform="matrix(1 0 0 1 386.8111 1589.0352)" class="st5 st8 st15">Real estate</text>
	</g>
	<text transform="matrix(1 0 0 1 228.3459 1412.0547)" class="st5 st8 st9">事業内容</text>
	<text transform="matrix(1 0 0 1 822.9684 2651.2432)" class="st5 st6 st14">投資用不動産</text>
	<g>
		<text transform="matrix(1 0 0 1 844.4987 2561.5498)" class="st5 st8 st15">Investment property</text>
	</g>
	<g>
		<text transform="matrix(1 0 0 1 555.3052 3045.6689)" class="st12 st8 st15">Asset formation consultant</text>
	</g>
	<rect x="200" y="830.62" class="st16" width="479.22" height="170.15"/>
	<text transform="matrix(1 0 0 1 199.9999 844.7053)"><tspan x="0" y="0" class="st17 st18">将来に不安を抱えている人が多い現代、資産形成の手段はたくさ</tspan><tspan x="0" y="31.2" class="st17 st18">んありますが、金融商品（保険・銀行・証券）だけではカバーで</tspan><tspan x="0" y="62.4" class="st17 st18">きない部分があります。 </tspan><tspan x="0" y="93.6" class="st17 st18">そこで不動産はそれを補える資産形成の一つです。将来への不安</tspan><tspan x="0" y="124.8" class="st17 st18">を安心に変えるお手伝いができます。</tspan></text>
	<g>
		<defs>
			<rect id="SVGID_7_" x="2.54" y="4786.52" width="1394.91" height="498.15"/>
		</defs>
		<clipPath id="SVGID_8_">
			<use xlink:href="#SVGID_7_"  style="overflow:visible;"/>
		</clipPath>
		<g style="clip-path:url(#SVGID_8_);">
			
				<image style="overflow:visible;" width="1266" height="662" xlink:href="CDD43B41B1245170.png"  transform="matrix(1.1018 0 0 1.1018 2.5436 4674.1035)">
			</image>
		</g>
	</g>
	<g>
		<defs>
			<rect id="SVGID_9_" y="6736.81" width="1400" height="445.71"/>
		</defs>
		<clipPath id="SVGID_10_">
			<use xlink:href="#SVGID_9_"  style="overflow:visible;"/>
		</clipPath>
		<g style="clip-path:url(#SVGID_10_);">
			
				<image style="overflow:visible;" width="1920" height="1280" xlink:href="CDD43B41B1245173.jpg"  transform="matrix(0.8007 0 0 0.8007 -47.0099 6357.4365)">
			</image>
		</g>
	</g>
	<text transform="matrix(1 0 0 1 345.465 4541.1123)"><tspan x="0" y="0" class="st6 st19">201</tspan><tspan x="29.75" y="0" class="st6 st19 st20">7年8月1</tspan><tspan x="118.01" y="0" class="st6 st19">日</tspan></text>
	<text transform="matrix(1 0 0 1 200.1576 4540.6846)" class="st21 st6 st19">設立</text>
	<text transform="matrix(1 0 0 1 345.465 4587.5391)"><tspan x="0" y="0" class="st6 st19">〒336-0027　埼玉県さいたま市南区沼</tspan><tspan x="309.56" y="0" class="st6 st19 st20">影</tspan><tspan x="332.06" y="0" class="st6 st19">1-11-2 A904</tspan></text>
	<text transform="matrix(1 0 0 1 200.1576 4586.6836)" class="st21 st6 st19">所在地</text>
	<text transform="matrix(1 0 0 1 345.465 4447.9658)" class="st6 st19">株式会社おおたに</text>
	<text transform="matrix(1 0 0 1 200.1576 4445.8267)" class="st21 st6 st19">会社名</text>
	<text transform="matrix(1 0 0 1 345.465 4494.7373)" class="st6 st19">代表取締役　大谷 隆一</text>
	<text transform="matrix(1 0 0 1 200.1576 4494.3096)" class="st21 st6 st19">代表</text>
	<g>
		<defs>
			<rect id="SVGID_11_" x="720" y="1285.94" width="680" height="624.07"/>
		</defs>
		<clipPath id="SVGID_12_">
			<use xlink:href="#SVGID_11_"  style="overflow:visible;"/>
		</clipPath>
		<g style="clip-path:url(#SVGID_12_);">
			
				<image style="overflow:visible;" width="1920" height="1280" xlink:href="CDD43B41B124517E.jpg"  transform="matrix(0.499 0 0 0.499 573.8567 1273)">
			</image>
		</g>
	</g>
	<g>
		<g>
			<defs>
				<rect id="SVGID_13_" x="200" y="3185.94" width="478.92" height="487.68"/>
			</defs>
			<clipPath id="SVGID_14_">
				<use xlink:href="#SVGID_13_"  style="overflow:visible;"/>
			</clipPath>
			<g style="clip-path:url(#SVGID_14_);">
				
					<image style="overflow:visible;" width="1920" height="1281" xlink:href="CDD43B41B124517F.jpg"  transform="matrix(0.4461 0 0 0.4461 21.6903 3123.5095)">
				</image>
			</g>
		</g>
	</g>
	<g>
		<g>
			<defs>
				<rect id="SVGID_15_" x="720.54" y="3185.94" width="478.92" height="487.68"/>
			</defs>
			<clipPath id="SVGID_16_">
				<use xlink:href="#SVGID_15_"  style="overflow:visible;"/>
			</clipPath>
			<g style="clip-path:url(#SVGID_16_);">
				
					<image style="overflow:visible;" width="1920" height="1280" xlink:href="CDD43B41B1245172.jpg"  transform="matrix(0.4012 0 0 0.4012 574.8334 3173.7751)">
				</image>
			</g>
		</g>
	</g>
	<g>
		<defs>
			<rect id="SVGID_17_" x="-0.29" y="3769.48" width="1400.29" height="443.54"/>
		</defs>
		<clipPath id="SVGID_18_">
			<use xlink:href="#SVGID_17_"  style="overflow:visible;"/>
		</clipPath>
		<g transform="matrix(1 0 0 1 0 -2.441406e-04)" style="clip-path:url(#SVGID_18_);">
			
				<image style="overflow:visible;" width="1920" height="1281" xlink:href="CDD43B41B1245175.jpg"  transform="matrix(0.8115 0 0 0.8115 -129.6652 3582.7205)">
			</image>
		</g>
	</g>
	<g>
		<text transform="matrix(1 0 0 1 200.1574 4629.4932)" class="st21 st6 st19">資本金</text>
	</g>
	<text transform="matrix(1 0 0 1 348.5116 4629.4932)"><tspan x="0" y="0" class="st6 st19">10</tspan><tspan x="19.84" y="0" class="st6 st19 st20">0</tspan><tspan x="34.25" y="0" class="st6 st19">万円</tspan></text>
	<g>
		<text transform="matrix(1 0 0 1 200.1574 4671.6562)" class="st21 st6 st19">事業内容</text>
	</g>
	<text transform="matrix(1 0 0 1 348.5116 4671.6562)" class="st6 st19">小売業</text>
	<text transform="matrix(1 0 0 1 228.3459 4350.1768)" class="st1 st8 st9">会社概要</text>
	<text transform="matrix(1 0 0 1 199.9982 58.1638)" class="st5 st22 st9">株式会社おおたに</text>
	<rect x="426.15" y="446.19" class="st1" width="533.85" height="63.78"/>
	<text transform="matrix(1 0 0 1 571.4855 488.3119)" class="st5 st22 st9">株式会社おおたに</text>
	<text transform="matrix(1 0 0 1 462.3205 336.909)"><tspan x="0" y="0" class="st1 st23 st9">不動産売却、購入をお考えの方は</tspan><tspan x="120" y="57" class="st1 st23 st9">ご相談ください</tspan><tspan x="344" y="57" class="st1 st23 st9 st10">。</tspan></text>
	<g>
		<g>
			<text transform="matrix(1 0 0 1 1122.3331 50.457)" class="st5 st6 st7">お問い合わせ</text>
		</g>
		<g>
			<text transform="matrix(1 0 0 1 977.9225 50.457)" class="st5 st6 st7">会社情報</text>
		</g>
		<g>
			<text transform="matrix(1 0 0 1 833.8068 50.457)" class="st5 st6 st7">事業内容</text>
		</g>
		<g>
			<text transform="matrix(1 0 0 1 706.1549 50.457)" class="st5 st6 st7">トップ </text>
		</g>
	</g>
	<rect x="-0.65" y="5284.67" class="st4" width="1401" height="1452.14"/>
	<g>
		
			<image style="overflow:visible;opacity:0.2;" width="1181" height="1339" xlink:href="BFAC907E9A3FC58F.png"  transform="matrix(1 0 0 1 106.5885 5339)">
		</image>
		<g>
			<rect x="196.98" y="5429.99" class="st5" width="1000" height="1157.94"/>
		</g>
	</g>
	<g>
		<text transform="matrix(1 0 0 1 256.3436 5679.4185)" class="st6 st9">メールフォーム</text>
	</g>
	<g>
		<rect x="408.56" y="6079.15" class="st24" width="724" height="33.67"/>
		<rect x="408.56" y="5962.5" class="st24" width="268.48" height="33.67"/>
		<rect x="408.56" y="6017.6" class="st24" width="724" height="33.67"/>
		<rect x="408.56" y="6139.11" class="st24" width="724" height="33.67"/>
		<rect x="408.56" y="6210.04" class="st24" width="722.92" height="187.49"/>
		<rect x="863.37" y="5962.5" class="st24" width="268.48" height="33.67"/>
	</g>
	<text transform="matrix(1 0 0 1 252.9532 5987.3354)"><tspan x="0" y="0" class="st12 st6 st25">お名</tspan><tspan x="40" y="0" class="st12 st6 st25 st26">前</tspan><tspan x="65" y="0" class="st12 st6 st25">*</tspan></text>
	<text transform="matrix(1 0 0 1 722.2277 5987.3354)" class="st12 st6 st25">ふりがな</text>
	<text transform="matrix(1 0 0 1 252.9532 6104.5894)"><tspan x="0" y="0" class="st12 st6 st25">電話番</tspan><tspan x="60" y="0" class="st12 st6 st25 st26">号</tspan><tspan x="85" y="0" class="st12 st6 st25 st27">*</tspan></text>
	<text transform="matrix(1 0 0 1 252.9532 6166.5894)" class="st12 st6 st25">件名</text>
	<text transform="matrix(1 0 0 1 258.2867 6229.9058)"><tspan x="0" y="0" class="st12 st6 st25">お問い合わせ</tspan><tspan x="0" y="35" class="st12 st6 st25">内</tspan><tspan x="20" y="35" class="st12 st6 st25 st26">容</tspan><tspan x="45" y="35" class="st12 st6 st25 st27">*</tspan></text>
	<text transform="matrix(1 0 0 1 252.9532 6044.6206)"><tspan x="0" y="0" class="st12 st6 st25 st27">メールアドレ</tspan><tspan x="105.6" y="0" class="st12 st6 st25 st28">ス</tspan><tspan x="128.2" y="0" class="st12 st6 st25 st27">*</tspan></text>
	<g>
		<text transform="matrix(1 0 0 1 256.6642 5726.5161)"><tspan x="0" y="0" class="st6 st18">下記のフォームに必要事項をご記入の上、確認ボタンを押してください</tspan><tspan x="512" y="0" class="st6 st18 st29">。</tspan><tspan x="-8" y="34" class="st6 st18">「*」が必要事項です</tspan><tspan x="143.28" y="34" class="st6 st18 st29">。</tspan><tspan x="0" y="68" class="st6 st18">ご入力いただいた情報は、お問い合わせ内容へのご回答の目的のみに利用いたします</tspan><tspan x="608" y="68" class="st6 st18 st29">。</tspan><tspan x="0" y="136" class="st6 st18">内容によっては、時間がかかる場合や回答いたしかねる場合がございますのでご了承願います</tspan><tspan x="672" y="136" class="st6 st18 st29">。</tspan><tspan x="0" y="170" class="st6 st18">お急ぎの際はお電話にてお問い合わせください</tspan><tspan x="336" y="170" class="st6 st18 st29">。</tspan></text>
	</g>
	<rect x="513.92" y="6456.93" class="st1" width="366.43" height="59.31"/>
	<g>
		<text transform="matrix(1 0 0 1 673.1305 6494.1289)" class="st5 st6 st15">確認</text>
	</g>
	<text transform="matrix(1 0 0 1 285.0388 5556.5908)" class="st1 st8 st9">お問い合わせ</text>
	<g>
		<g>
			<text transform="matrix(1 0 0 1 868.7568 7247.457)" class="st5 st6 st7">お問い合わせ</text>
		</g>
		<g>
			<text transform="matrix(1 0 0 1 724.3461 7247.457)" class="st5 st6 st7">会社情報</text>
		</g>
		<g>
			<text transform="matrix(1 0 0 1 580.2304 7247.457)" class="st5 st6 st7">事業内容</text>
		</g>
		<g>
			<text transform="matrix(1 0 0 1 452.5786 7247.457)" class="st5 st6 st7">トップ </text>
		</g>
	</g>
	<g>
		<defs>
			<rect id="SVGID_19_" y="1910.01" width="1400" height="434.99"/>
		</defs>
		<clipPath id="SVGID_20_">
			<use xlink:href="#SVGID_19_"  style="overflow:visible;"/>
		</clipPath>
		<g transform="matrix(1 0 0 1 0 1.220703e-04)" style="clip-path:url(#SVGID_20_);">
			
				<image style="overflow:visible;" width="1920" height="1281" xlink:href="BFAC907E9A3FC58D.jpg"  transform="matrix(0.7314 0 0 0.7314 -4.2141 1791.52)">
			</image>
		</g>
	</g>
	<g>
		<defs>
			<rect id="SVGID_21_" x="720" y="726.31" width="480" height="464.15"/>
		</defs>
		<clipPath id="SVGID_22_">
			<use xlink:href="#SVGID_21_"  style="overflow:visible;"/>
		</clipPath>
		<g style="clip-path:url(#SVGID_22_);">
			
				<image style="overflow:visible;" width="1920" height="1280" xlink:href="BFAC907E9A3FC58B.jpg"  transform="matrix(0.6022 0 0 0.6022 86.5882 629.4086)">
			</image>
		</g>
	</g>
	<rect x="200" y="726.31" class="st30" width="277.19" height="70.38"/>
	<rect x="200" y="1363.76" class="st31" width="184.88" height="70.38"/>
	<rect x="200" y="4301.88" class="st30" width="200.46" height="70.38"/>
	<rect x="258.29" y="5510.22" class="st30" width="242.96" height="70.38"/>
	<polygon class="st16" points="1031.67,45.68 1122.33,45.68 1122.33,45.68 1031.67,45.68 	"/>
</g>
<g id="ガイド">
</g>
<g id="枠_x2F_参考">
</g>
</svg>
